# xmcd
#
# Track frame offsets:
# 150
# 15637
# 32486
# 53082
# 67883
# 83738
# 102590
# 119954
# 144054
# 158985
# 186346
# 206135
# 225349
# 244180
# 259212
#
# Disc length: 3729 seconds
#
#
# Revision: 0
# Processed by: cddbd v1.5.2PL0 Copyright (c) Steve Scherf et al.
# Submitted via: FreeRIP 2.90 
#
DISCID=cc0e8f0f
DTITLE=Pampa - Joca Martins
DYEAR=1900
DGENRE=A Cappella
TTITLE0=Com o Coracao nas Esporas
TTITLE1=Tropilha Maragata
TTITLE2=Pampa
TTITLE3=Entrega de Tropa
TTITLE4=Levando o Corpo
TTITLE5=Encomenda
TTITLE6=De Bigode Repartido
TTITLE7=Cantadores
TTITLE8=Eu Tenho um Verso Gaucho
TTITLE9=Campeiro Cusco e Cavalo
TTITLE10=Junto a Um Casal de Barreiros
TTITLE11=Cantar Galponeiro
TTITLE12=Milongao de Madrugada
TTITLE13=De Fronteira e Chamame
TTITLE14=Tino Sestroso
EXTD=
EXTT0=
EXTT1=
EXTT2=
EXTT3=
EXTT4=
EXTT5=
EXTT6=
EXTT7=
EXTT8=
EXTT9=
EXTT10=
EXTT11=
EXTT12=
EXTT13=
EXTT14=
PLAYORDER=
